<svg xmlns="http://www.w3.org/2000/svg" viewBox="0 0 32 32">
<rect width="32" height="32" fill="#FF6E01"/>
<g fill="#F3F0ED"><rect x="15" y="2" width="5" height="1"/><rect x="7" y="3" width="13" height="1"/><rect x="12" y="4" width="8" height="1"/><rect x="12" y="5" width="8" height="1"/><rect x="12" y="6" width="8" height="1"/><rect x="12" y="7" width="8" height="1"/><rect x="12" y="8" width="8" height="1"/><rect x="12" y="9" width="8" height="1"/><rect x="31" y="9" width="1" height="1"/><rect x="12" y="10" width="8" height="1"/><rect x="29" y="10" width="3" height="1"/><rect x="12" y="11" width="8" height="1"/><rect x="28" y="11" width="4" height="1"/><rect x="12" y="12" width="8" height="1"/><rect x="27" y="12" width="5" height="1"/><rect x="12" y="13" width="8" height="1"/><rect x="27" y="13" width="5" height="1"/><rect x="12" y="14" width="8" height="1"/><rect x="27" y="14" width="5" height="1"/><rect x="12" y="15" width="8" height="1"/><rect x="26" y="15" width="6" height="1"/><rect x="12" y="16" width="8" height="1"/><rect x="27" y="16" width="5" height="1"/><rect x="12" y="17" width="8" height="1"/><rect x="27" y="17" width="5" height="1"/><rect x="12" y="18" width="8" height="1"/><rect x="28" y="18" width="4" height="1"/><rect x="12" y="19" width="8" height="1"/><rect x="29" y="19" width="3" height="1"/><rect x="12" y="20" width="8" height="1"/><rect x="31" y="20" width="1" height="1"/><rect x="9" y="21" width="14" height="1"/><rect x="7" y="22" width="18" height="1"/></g>
</svg>